<svg xmlns="http://www.w3.org/2000/svg" version="1.1" xmlns:xlink="http://www.w3.org/1999/xlink" width="512" height="512" x="0" y="0" viewBox="0 0 512 512" style="enable-background:new 0 0 512 512" xml:space="preserve" class=""><g><path fill="#101010" d="M376.405 10.998H133.142a8 8 0 0 0-7.999 8.133l1.428 85.668c-2.813 5.314-10.695 21.029-18.735 44.541-9.029 26.405-19.953 68.092-20.726 116.742-1.026 64.644 11.911 139.871 19.641 184.818 3.298 19.178 5.903 34.325 5.903 39.679a8 8 0 0 0 7.971 8l89.552.323h.029a8 8 0 0 0 6.911-3.971c14.403-24.71 25.815-61.877 33.918-110.468a757.67 757.67 0 0 0 3.735-25.084 757.276 757.276 0 0 0 3.735 25.084c8.103 48.591 19.515 85.758 33.918 110.468a8.002 8.002 0 0 0 6.912 3.971h.029l89.552-.323a8 8 0 0 0 7.971-8c0-5.354 2.605-20.502 5.903-39.679 3.84-22.331 9.1-52.913 13.147-85.223 4.822-38.493 6.946-71.071 6.493-99.595-.772-48.65-11.697-90.337-20.726-116.742-8.04-23.512-15.922-39.227-18.735-44.541l1.425-85.463a7.994 7.994 0 0 0-7.989-8.338z" opacity="1" data-original="#484f69"></path><path fill="#545b70" d="M155.098 66.418c20.473-.514 66.819 3.535 94.291 46.718v87.635s-24.656 48.627-71.86 28.855c-39.569-16.574-35.763-119.51-33.497-152.373.415-6.017 5.212-10.688 11.066-10.835z" opacity="1" data-original="#9fabce" class=""></path><g fill="#ff004f"><path d="M213.994 243.813c6.696-2.688 15.225-6.397 21.764-10.207 2.976-1.734 6.643.683 6.204 4.099l-11.707 129.436c-.353 3.903-6.035 3.957-6.462.062-3.625-33.044-9.841-82.168-17.163-108.564-1.69-6.093 1.497-12.471 7.364-14.826zM194.452 253.04l25.288 138.893a65.477 65.477 0 0 1-3.768 36.4L194.43 481.28c-2.35 5.776-10.82 4.788-11.77-1.375-6.681-43.335-19.448-144.075-8.933-226.351.844-6.605 7.586-10.736 13.871-8.536a10.49 10.49 0 0 1 6.854 8.022zM165.221 238.417a7.452 7.452 0 0 1 1.678 5.47c-1.693 17.489-9.914 105.101-9.116 149.006.561 30.837-10.543 61.674-18.827 80.256-2.574 5.773-11.071 4.708-12.149-1.52-4.886-28.234-13.236-79.986-12.604-100.526.71-23.064 27.467-100.204 38.252-130.44 1.943-5.448 9.077-6.702 12.766-2.246z" fill="#47ff00" opacity="1" data-original="#ff004f" class=""></path></g><path fill="#4c982f" d="M125.987 163.333c1.149-2.664 4.977-2.503 5.87.257 5.248 16.233 16.862 53.502 16.163 63.338-.731 10.287-25.81 72.296-35.576 103.532-.968 3.097-5.488 2.633-5.8-.597-3.127-32.371-6.482-106.624 19.343-166.53z" opacity="1" data-original="#ff8564" class=""></path><path fill="#545b70" d="M352.556 66.418c-20.473-.514-66.819 3.535-94.291 46.718v87.635s24.656 48.627 71.86 28.855c39.569-16.574 35.763-119.51 33.497-152.373-.415-6.017-5.211-10.688-11.066-10.835z" opacity="1" data-original="#9fabce" class=""></path><path fill="#47ff00" d="M293.66 243.813c-6.696-2.688-15.225-6.397-21.764-10.207-2.976-1.734-6.643.683-6.204 4.099L277.4 367.141c.353 3.903 6.035 3.957 6.462.062 3.625-33.044 9.841-82.168 17.163-108.564 1.69-6.093-1.497-12.471-7.365-14.826zM313.203 253.04l-25.288 138.893a65.477 65.477 0 0 0 3.768 36.4l21.542 52.947c2.35 5.776 10.82 4.788 11.77-1.375 6.681-43.335 19.448-144.075 8.933-226.351-.844-6.605-7.586-10.736-13.871-8.536a10.488 10.488 0 0 0-6.854 8.022zM342.434 238.417a7.452 7.452 0 0 0-1.678 5.47c1.693 17.489 9.914 105.101 9.116 149.006-.561 30.837 10.543 61.674 18.827 80.256 2.574 5.773 11.072 4.708 12.149-1.52 4.886-28.234 13.236-79.986 12.604-100.526-.71-23.064-27.467-100.204-38.252-130.44-1.944-5.448-9.078-6.702-12.766-2.246z" opacity="1" data-original="#ff004f" class=""></path><path fill="#4c982f" d="M381.667 163.333c-1.149-2.664-4.977-2.503-5.87.257-5.248 16.233-16.862 53.502-16.163 63.338.731 10.287 25.81 72.296 35.576 103.532.968 3.097 5.488 2.633 5.8-.597 3.127-32.371 6.483-106.624-19.343-166.53z" opacity="1" data-original="#ff8564" class=""></path><path fill="#545b70" d="M171.331 46.926c.374 6.505 5.603 11.583 11.927 11.583 14.415 0 28.378 5.184 39.481 14.659l18.348 15.657c3.305 2.82 8.303.398 8.303-4.024V30.747H170.4zM139.761 38.82l1.914 13.527a7.106 7.106 0 0 0 7.613 6.087l11.097-.904c3.504-.286 6.836-3.098 6.513-6.599a592.047 592.047 0 0 0-2.233-20.185H138.98c.153 2.698.402 5.392.781 8.074zM258.265 84.802c0 4.422 4.998 6.844 8.303 4.024l18.348-15.657c11.102-9.474 25.066-14.659 39.481-14.659 6.324 0 11.552-5.078 11.927-11.583l.93-16.179h-78.989zM340.757 50.932c-.323 3.501 3.009 6.313 6.513 6.599l11.097.904a7.106 7.106 0 0 0 7.613-6.087l1.914-13.527a96.94 96.94 0 0 0 .781-8.073H342.99a591.429 591.429 0 0 0-2.233 20.184z" opacity="1" data-original="#9fabce" class=""></path></g></svg>