<svg xmlns="http://www.w3.org/2000/svg" version="1.1" xmlns:xlink="http://www.w3.org/1999/xlink" width="512" height="512" x="0" y="0" viewBox="0 0 512 512" style="enable-background:new 0 0 512 512" xml:space="preserve" class=""><g><path fill="#101010" d="M300.568 37.462c-1.093 0-2.19.224-3.221.677l-19.979 8.789a55.68 55.68 0 0 1-22.558 4.743 55.624 55.624 0 0 1-23.556-5.193l-17.853-8.274a7.999 7.999 0 0 0-11.364 7.258v22.553l-79.783 38.894c-6.267 2.078-54.193 19.141-68.246 58.949-12.363 35.022-5.801 71.956-2.555 85.742-10.916 8.808-35.98 34.384-37.773 84.578a8 8 0 0 0 1.152 4.43l55.372 91.433a8 8 0 0 0 13.907-.391c16.658-31.356 16.875-58.869 16.33-68.373l15.191-19.628c2.289 3.812 5.327 8.26 9.282 13.009 8.243 9.897 11.749 23.036 9.62 36.046l-8.755 53.504a8 8 0 0 0 6.279 9.127l76.517 15.781a228.082 228.082 0 0 0 45.975 4.691 228.12 228.12 0 0 0 45.127-4.518l78.842-15.948a8 8 0 0 0 6.309-9.133l-8.755-53.504c-2.129-13.011 1.377-26.149 9.62-36.046 3.955-4.75 6.993-9.198 9.282-13.009l15.19 19.627c-.577 10.026-.31 40.08 19.211 73.545a8 8 0 0 0 6.91 3.969l.112-.001a7.998 7.998 0 0 0 6.908-4.163l52.646-96.326a8 8 0 0 0 .975-4.122c-1.793-50.194-26.857-75.77-37.773-84.578 3.246-13.786 9.808-50.72-2.555-85.742-14.053-39.809-61.979-56.871-68.246-58.949L308.57 68.015V45.462a8.001 8.001 0 0 0-8.002-8z" opacity="1" data-original="#484f69"></path><path fill="#545b70" d="m220.32 60.413 12.526 16.321a34.797 34.797 0 0 1 5.474 10.388l15.536 47.628c.177.544.268 1.112.268 1.684 0 5.303-6.81 7.463-9.871 3.132-12.382-17.517-31.578-49.908-27.893-78.118.254-1.947 2.764-2.595 3.96-1.035zM146.086 109.587l50.855-25.03c5.39-2.653 11.842.362 13.267 6.198 1.873 7.669 5.16 18.229 10.711 28.856 2.837 5.431-1.783 11.751-7.812 10.655l-65.805-11.965c-4.394-.799-5.224-6.742-1.216-8.714zM169.56 134.408s-37.238-18.619-63.422-6.982-57.021 31.42-41.311 121.607c0 0 41.311-30.838 47.13-53.53s30.838-59.35 57.603-61.095z" opacity="1" data-original="#9fabce" class=""></path><path fill="#47ff00" d="M241.754 156.559a15.301 15.301 0 0 1 7.52 13.185v46.72c0 8.704-6.048 15.996-14.171 17.901-4.694 1.101-9.383 2.22-13.953 3.754l-49.851 16.732c-9.613 0-18.681-4.489-24.464-12.168-6.153-8.172-16.775-17.887-33.478-20.387-3.507-.525-5.224-4.54-3.125-7.399 5.659-7.711 14.206-20.645 16.854-31.613 4.073-16.874 36.075-45.966 58.185-47.712 16.315-1.289 43.406 13.269 56.483 20.987z" opacity="1" data-original="#ff004f" class=""></path><path fill="#545b70" d="M109.317 243.483v28.823s-13.09 70.544-48.363 97.308c-5.13 3.892-12.553.702-13.298-5.694l-4.094-35.137a49.024 49.024 0 0 1 3.117-23.727l19.893-50.205s22.11-14.546 31.42-22.692c6.255 0 11.325 5.07 11.325 11.324z" opacity="1" data-original="#9fabce" class=""></path><path fill="#545b70" d="M47.727 277.147c1.622-1.284 3.836.622 2.83 2.43-4.655 8.367-11.702 22.889-12.824 35.847-1.105 12.77-.772 30.815-.404 41.857.078 2.346-3.072 3.176-4.159 1.095l-5.407-10.35a28.387 28.387 0 0 1-3.224-14.312c.565-13.726 4.161-41.496 23.188-56.567zM111.504 298.082v8.785c0 3.786-.666 7.54-1.997 11.085-2.851 7.595-8.865 20.797-18.739 29.621-1.047.936-2.627-.261-2.01-1.523 4.655-9.513 14.642-30.743 20.07-48.378.463-1.501 2.676-1.161 2.676.41zM249.273 307.203v38.609a5.279 5.279 0 0 1-5.279 5.279h-34.61a9.542 9.542 0 0 1-8.262-4.767l-4.026-6.963a15.246 15.246 0 0 1 3.652-19.522c9.015-7.244 23.896-16.403 42.774-17.896 3.092-.245 5.751 2.158 5.751 5.26zM242.89 427.896h-24.602c-6.239 0-11.296-5.058-11.296-11.296v-44.872c0-6.239 5.058-11.296 11.296-11.296h24.602a6.383 6.383 0 0 1 6.383 6.383v54.697a6.384 6.384 0 0 1-6.383 6.384zM156.864 330.539l15.916 18.076a41.707 41.707 0 0 1 10.405 27.563v22.063c0 1.734-2.036 2.668-3.35 1.536l-13.895-11.965a36.332 36.332 0 0 1-12.625-27.533v-28.4c0-1.869 2.314-2.743 3.549-1.34zM159.456 392.998l15.766 14.607a24.856 24.856 0 0 1 7.964 18.234v16.516c0 3.311-4.049 4.917-6.318 2.506L160.64 427.62a26.949 26.949 0 0 1-7.325-18.47v-13.47c0-3.19 3.801-4.85 6.141-2.682zM290.285 60.413 277.76 76.734a34.797 34.797 0 0 0-5.474 10.388L256.75 134.75a5.442 5.442 0 0 0-.268 1.684c0 5.303 6.81 7.463 9.871 3.132 12.382-17.517 31.578-49.908 27.893-78.118-.254-1.947-2.764-2.595-3.961-1.035zM364.52 109.587l-50.855-25.03c-5.39-2.653-11.842.362-13.267 6.198-1.873 7.669-5.16 18.229-10.711 28.856-2.837 5.431 1.783 11.751 7.812 10.655l65.805-11.965c4.394-.799 5.224-6.742 1.216-8.714zM341.046 134.408s37.238-18.619 63.422-6.982c26.183 11.637 57.021 31.42 41.311 121.607 0 0-41.311-30.838-47.13-53.53s-30.838-59.35-57.603-61.095z" opacity="1" data-original="#9fabce" class=""></path><path fill="#47ff00" d="M268.852 156.559a15.301 15.301 0 0 0-7.52 13.185v46.72c0 8.704 6.048 15.996 14.171 17.901 4.694 1.101 9.383 2.22 13.953 3.754l49.851 16.732c9.613 0 18.681-4.489 24.464-12.168 6.153-8.172 16.775-17.887 33.478-20.387 3.507-.525 5.224-4.54 3.125-7.399-5.659-7.711-14.206-20.645-16.854-31.613-4.073-16.874-36.075-45.966-58.185-47.712-16.316-1.289-43.406 13.269-56.483 20.987z" opacity="1" data-original="#ff004f" class=""></path><path fill="#545b70" d="M401.289 243.483v28.823s13.09 70.544 48.363 97.308c5.13 3.892 12.553.702 13.298-5.694l4.094-35.137a49.024 49.024 0 0 0-3.117-23.727l-19.893-50.205s-22.11-14.546-31.42-22.692c-6.255 0-11.325 5.07-11.325 11.324z" opacity="1" data-original="#9fabce" class=""></path><path fill="#545b70" d="M462.879 277.147c-1.622-1.284-3.836.622-2.83 2.43 4.655 8.367 11.702 22.889 12.824 35.847 1.105 12.77.772 30.815.404 41.857-.078 2.346 3.073 3.176 4.159 1.095l5.407-10.35a28.387 28.387 0 0 0 3.224-14.312c-.566-13.726-4.161-41.496-23.188-56.567zM399.102 298.082v8.785c0 3.786.666 7.54 1.997 11.085 2.851 7.595 8.865 20.797 18.739 29.621 1.047.936 2.627-.261 2.01-1.523-4.655-9.513-14.642-30.743-20.07-48.378-.464-1.501-2.676-1.161-2.676.41zM261.333 307.203v38.609a5.279 5.279 0 0 0 5.279 5.279h34.61a9.542 9.542 0 0 0 8.262-4.767l4.026-6.963a15.246 15.246 0 0 0-3.652-19.522c-9.015-7.244-23.896-16.403-42.774-17.896-3.092-.245-5.751 2.158-5.751 5.26zM267.716 427.896h24.602c6.239 0 11.296-5.058 11.296-11.296v-44.872c0-6.239-5.058-11.296-11.296-11.296h-24.602a6.383 6.383 0 0 0-6.383 6.383v54.697a6.383 6.383 0 0 0 6.383 6.384zM353.741 330.539l-15.916 18.076a41.707 41.707 0 0 0-10.405 27.563v22.063c0 1.734 2.036 2.668 3.35 1.536l13.895-11.965a36.332 36.332 0 0 0 12.625-27.533v-28.4c0-1.869-2.314-2.743-3.549-1.34zM351.149 392.998l-15.766 14.607a24.856 24.856 0 0 0-7.964 18.234v16.516c0 3.311 4.049 4.917 6.318 2.506l16.227-17.241a26.949 26.949 0 0 0 7.325-18.47v-13.47c.001-3.19-3.799-4.85-6.14-2.682zM249.027 250.095v36.119c0 2.743-2.006 5.133-4.863 5.794l-20.888 4.832c-10.774 2.492-27.945 10.577-27.945 10.577-5.973 6.163-36.108-43.292-12.473-43.292l59.763-20c3.537 0 6.406 2.673 6.406 5.97zM261.086 250.095v36.119c0 2.743 2.006 5.133 4.863 5.794l20.888 4.832c10.774 2.492 27.945 10.577 27.945 10.577 5.973 6.163 37.244-43.292 12.473-43.292l-59.763-20c-3.537 0-6.406 2.673-6.406 5.97z" opacity="1" data-original="#9fabce" class=""></path></g></svg>