<svg xmlns="http://www.w3.org/2000/svg" version="1.1" xmlns:xlink="http://www.w3.org/1999/xlink" width="512" height="512" x="0" y="0" viewBox="0 0 512 512" style="enable-background:new 0 0 512 512" xml:space="preserve" class=""><g><path fill="#101010" d="M254.771 507.294c-53.055 0-113.205-35.77-115.739-37.292a3.996 3.996 0 0 1-1.938-3.301l-1.394-43.587a3.993 3.993 0 0 1 .051-.773l8.339-50.958c2.197-13.428-1.431-26.998-9.952-37.231-5.459-6.555-8.987-12.426-11.137-16.613l-18.654 24.101c.594 7.312 1.471 36.451-17.722 69.353a3.994 3.994 0 0 1-2.88 1.942 3.99 3.99 0 0 1-3.313-1.042L25.969 360.74a4.003 4.003 0 0 1-1.262-2.916v-40.857c0-.048.001-.095.003-.143 1.795-50.276 28.202-74.486 36.112-80.635-1.533-9.755-5.849-45.496 6.415-80.234 12.891-36.517 57.436-52.173 62.786-53.936l71.668-42.661 6.781-44.589a3.999 3.999 0 0 1 3.201-3.327l22.57-4.328a110.461 110.461 0 0 1 41.055-.133l24.079 4.456a4 4 0 0 1 3.227 3.332l6.782 44.589 71.667 42.661c5.346 1.761 49.896 17.417 62.786 53.936 12.374 35.051 6.543 69.822 4.645 78.962 7.206 7.366 34.528 38.557 36.35 89.554.002.047.003.095.003.143v33.211c0 1.085-.44 2.123-1.221 2.876l-52.929 51.152a4.01 4.01 0 0 1-3.326 1.087 4.006 4.006 0 0 1-2.908-1.947c-19.192-32.901-18.316-62.04-17.723-69.353l-18.653-24.101c-2.149 4.188-5.678 10.059-11.136 16.613-8.523 10.233-12.151 23.803-9.954 37.231l8.339 50.958c.042.255.059.515.051.773l-1.394 43.587a4 4 0 0 1-1.976 3.323c-2.596 1.522-64.204 37.27-117.236 37.27z" opacity="1" data-original="#484f69" class=""></path><path fill="#545b70" d="M250.413 26.421v40.573c0 11.104-4.525 21.699-12.471 29.202l-6.777 6.398 7.004 5.929c7.752 6.562 12.244 16.354 12.244 26.69v168.175c0 3.098-3.995 4.176-5.469 1.476L191.8 227.859c-1.911-3.499-2.69-7.526-2.253-11.515 2.17-19.774 3.316-83.149-42.294-101.898-4.63-1.903-4.992-8.496-.563-10.854l59.534-31.704 34.672-48.678c3.012-4.229 9.517-2.034 9.517 3.211z" opacity="1" data-original="#9fabce" class=""></path><path fill="#545b70" d="M114.216 114.779c6.027-2.874 12.982-3.088 19.236-.746 10.423 3.903 26.356 10.267 34.07 26.796 5.011 10.738-48.043 6.593-53.194 46.803a21.079 21.079 0 0 1-7.894 13.904c-3.472 2.721-4.255 2.722-27.78 23.883-3.378 3.039-8.786 1.387-9.859-3.029-5.539-22.785-12.627-79.931 45.421-107.611z" opacity="1" data-original="#9fabce" class=""></path><path fill="#545b70" d="M119.951 198.948a41.33 41.33 0 0 1 27.502-39.054l19.393-6.886c4.644-2.211 9.247 1.088 10.362 6.109 3.087 13.9 6.93 31.297 3.483 58.609a9.792 9.792 0 0 1-6.564 8.045l-45.876 15.542c-4.232 1.434-8.585-1.819-8.406-6.284.149-3.725.146-20.475.106-36.081zM130.617 246.451c-4.748 1.043-8.065 5.325-7.979 10.186.19 10.723 1.34 29.321 6.515 44.641 11.65 34.484 38.777 59.506 41.401 85.549.162 1.606 2.013 2.425 3.328 1.488l59.628-67.301a10.293 10.293 0 0 0 2.88-13.634l-49.51-70.957a10.748 10.748 0 0 0-12.118-3.535c-10.47 3.75-30.039 10.465-44.145 13.563z" opacity="1" data-original="#9fabce" class=""></path><path fill="#47ff00" d="M87.304 233.651c-5.229 11.56-12.506 29.993-14.433 46.643-.855 7.391-3.67 14.42-8.408 20.156-2.914 3.527-5.86 8.533-7.432 15.346-2.143 9.287-8.72 17.768-14.045 23.396-3.105 3.282-8.639 1.423-9.137-3.067-2.361-21.294-1.819-71.847 48.037-106.97 3.026-2.132 6.944 1.123 5.418 4.496zM109.536 212.481c1.953-2.366 5.8-.806 5.555 2.252-1.183 14.768-2.758 43.298.873 60.546 4.187 19.889-21.446 55.068-40.784 69.046-3.613 2.612-8.409-1.107-6.816-5.272l5.66-14.799c4.268-11.161 6.601-22.989 6.672-34.938.101-17.255 4.463-47.31 28.84-76.835z" opacity="1" data-original="#ff004f" class=""></path><path fill="#545b70" d="M250.413 326.56v159.099c0 4.211-4.761 6.518-7.908 3.832l-17.475-14.912c-10.574-9.023-23.873-13.961-37.601-13.961-6.023 0-11.003-4.836-11.359-11.032l-2.501-43.492c-.297-5.161 2-10.117 6.082-13.123l63.126-70.459c3.196-2.354 7.636 0 7.636 4.048zM154.76 364.861s11.093 45.266 15.087 88.54c.308 3.334-2.865 6.013-6.203 6.285l-8.569.861a6.767 6.767 0 0 1-7.25-5.797l-1.822-12.884a92.127 92.127 0 0 1 1.588-34.205zM258.867 26.421v40.573c0 11.104 4.525 21.699 12.471 29.202l6.777 6.398-7.004 5.929c-7.752 6.562-12.244 16.354-12.244 26.69v168.175c0 3.098 3.995 4.176 5.469 1.476l53.144-77.005c1.911-3.499 2.69-7.526 2.253-11.515-2.17-19.774-3.316-83.149 42.294-101.898 4.63-1.903 4.992-8.496.564-10.854l-59.534-31.704-34.673-48.678c-3.012-4.229-9.517-2.034-9.517 3.211z" opacity="1" data-original="#9fabce" class=""></path><path fill="#545b70" d="M395.064 114.779c-6.027-2.874-12.982-3.088-19.236-.746-10.423 3.903-26.356 10.267-34.07 26.796-5.001 10.716 49.38 7.184 53.425 46.654a20.651 20.651 0 0 0 7.853 14.203c3.317 2.578 4.502 2.967 27.589 23.733 3.378 3.039 8.786 1.387 9.859-3.029 5.54-22.785 12.628-79.931-45.42-107.611z" opacity="1" data-original="#9fabce" class=""></path><path fill="#545b70" d="M389.328 198.948a41.33 41.33 0 0 0-27.502-39.054l-19.393-6.886c-4.643-2.211-9.247 1.088-10.362 6.109-3.087 13.9-6.93 31.297-3.483 58.609a9.792 9.792 0 0 0 6.564 8.045l45.876 15.542c4.232 1.434 8.585-1.819 8.406-6.284-.149-3.725-.145-20.475-.106-36.081zM378.663 246.451c4.748 1.043 8.065 5.325 7.979 10.186-.19 10.723-1.34 29.321-6.515 44.641-11.65 34.484-38.777 59.506-41.401 85.549-.162 1.606-2.013 2.425-3.328 1.488l-59.628-66.301a10.293 10.293 0 0 1-2.88-13.634l49.51-71.957a10.748 10.748 0 0 1 12.118-3.535c10.47 3.75 30.039 10.465 44.145 13.563z" opacity="1" data-original="#9fabce" class=""></path><path fill="#47ff00" d="M421.976 233.651c5.229 11.56 12.506 29.993 14.433 46.643.855 7.391 3.67 14.42 8.408 20.156 2.914 3.527 5.86 8.533 7.432 15.346 2.143 9.287 8.72 17.768 14.045 23.396 3.105 3.282 8.639 1.423 9.137-3.067 2.361-21.294 1.819-71.847-48.037-106.97-3.027-2.132-6.944 1.123-5.418 4.496zM399.743 212.481c-1.953-2.366-5.8-.806-5.555 2.252 1.183 14.768 2.758 43.298-.873 60.546-4.187 19.889 21.446 55.068 40.784 69.046 3.613 2.612 8.409-1.107 6.816-5.272l-5.66-14.799c-4.268-11.161-6.601-22.989-6.672-34.938-.1-17.255-4.462-47.31-28.84-76.835z" opacity="1" data-original="#ff004f" class=""></path><path fill="#545b70" d="M258.867 326.56v159.099c0 4.211 4.761 6.518 7.908 3.832l17.475-14.912c10.574-9.023 23.872-13.961 37.602-13.961 6.023 0 11.003-4.836 11.359-11.032l2.501-43.492c.297-5.161-2-10.117-6.082-13.123l-63.126-70.459c-3.197-2.354-7.637 0-7.637 4.048zM354.52 364.861s-11.093 45.266-15.087 88.54c-.308 3.334 2.865 6.013 6.203 6.285l8.569.861a6.767 6.767 0 0 0 7.25-5.797l1.822-12.884a92.127 92.127 0 0 0-1.588-34.205z" opacity="1" data-original="#9fabce" class=""></path></g></svg>