<svg xmlns="http://www.w3.org/2000/svg" version="1.1" xmlns:xlink="http://www.w3.org/1999/xlink" width="512" height="512" x="0" y="0" viewBox="0 0 100 100" style="enable-background:new 0 0 512 512" xml:space="preserve" class=""><g><path d="M53.519 23.67C36.58-2.177-1.133 18.683 12.444 50.003h18.22l7.612-15.093a3.707 3.707 0 0 1 6.902.77l4.24 16.886 3.302-6.821a3.707 3.707 0 0 1 3.343-2.1h14.395a3.712 3.712 0 1 1 0 7.423H58.4l-6.735 13.95a3.707 3.707 0 0 1-3.342 2.1h-.375a3.707 3.707 0 0 1-3.224-2.79l-4.309-17.164-4.16 8.242a3.707 3.707 0 0 1-3.313 2.04H6.212a3.712 3.712 0 1 0 0 7.424h16.18c6.902 7.59 17.038 15.438 31.127 23.118 86.065-46.936 23.328-99.915 0-64.316z" fill="#47ff00" opacity="1" data-original="#000000" class=""></path></g></svg>