<svg xmlns="http://www.w3.org/2000/svg" version="1.1" xmlns:xlink="http://www.w3.org/1999/xlink" width="512" height="512" x="0" y="0" viewBox="0 0 24 24" style="enable-background:new 0 0 512 512" xml:space="preserve" class=""><g><path fill="#47ff00" fill-rule="evenodd" d="M11 4a1 1 0 0 1 1-1h7.997a1 1 0 0 1 .708 1.71L14.415 11H20a1 1 0 1 1 0 2h-7.997a1.001 1.001 0 0 1-.708-1.71L17.585 5H12a1 1 0 0 1-1-1zM3 9a1 1 0 0 1 1-1h4.997a1 1 0 0 1 .708 1.71L6.415 13H9a1 1 0 1 1 0 2H4.003a1.001 1.001 0 0 1-.708-1.71L6.585 10H4a1 1 0 0 1-1-1zm6 8a1 1 0 0 1 1-1h3.997a1 1 0 0 1 .708 1.71L12.415 20H14a1 1 0 1 1 0 2h-3.997a1.001 1.001 0 0 1-.708-1.71l2.29-2.29H10a1 1 0 0 1-1-1z" clip-rule="evenodd" opacity="1" data-original="#000000" class=""></path></g></svg>