<svg xmlns="http://www.w3.org/2000/svg" version="1.1" xmlns:xlink="http://www.w3.org/1999/xlink" width="512" height="512" x="0" y="0" viewBox="0 0 512 512" style="enable-background:new 0 0 512 512" xml:space="preserve" class=""><g><path fill="#000000" d="M198.703 9.853a10.675 10.675 0 0 1 10.542 9.217c3.921 28.403 20.526 96.26 21.272 152.199.846 63.45-28.764 115.901-28.764 160.739 0 29.366 1.694 103.204 7.469 131.243 2.686 13.044.712 37.054-16.389 37.054-62.707 0-126.859-22.958-134.331-24.305-7.472-1.348-12.411-5.003-12.411-11.756a26.303 26.303 0 0 1 13.544-23.002l67.641-20.033c16.077-6.49 6.566-43.36 6.566-43.36-3.154-39.007-8.896-77.759-17.007-116.043-28.499-134.533-10.924-196.461.148-243.95a10.68 10.68 0 0 1 10.442-8.259zM378.548 9.595a10.68 10.68 0 0 1 10.442 8.259c11.072 47.489 28.648 109.417.148 243.95-8.11 38.285-13.853 77.036-17.006 116.043 0 0-5.759 36.87 16.939 48.283l57.268 15.11a26.306 26.306 0 0 1 13.543 23.002c0 6.753-5.668 12.122-12.411 11.756 0 0-93.595 24.305-108.559 24.305s-36.342-7.838-35.972-35.877c5.774-28.039 1.28-103.053 1.28-132.419 0-44.838-29.61-97.289-28.764-160.739.746-55.939 17.352-123.796 21.272-152.199a10.675 10.675 0 0 1 10.542-9.217z" opacity="1" data-original="#484f69" class=""></path><g fill="#ff004f"><path d="M161.094 38.257s-16.08 205.796 20.353 240.885c26.409 25.435 32.118-102.924 22.946-140.881-9.985-41.326-34.18-153.29-43.299-100.004z" fill="#47ff00" opacity="1" data-original="#ff004f" class=""></path><path d="M152.249 38.257s-4.735 101.571 0 159.86c3.761 46.302 10.114 84.527-10.403 77.375s-40.129-97.084-29.462-151.831S150.06 1.03 152.249 38.257zM342.991 38.257s16.424 206.156-20.353 240.885c-24.942 23.553-32.118-102.924-22.946-140.881 9.985-41.326 34.181-153.29 43.299-100.004z" fill="#47ff00" opacity="1" data-original="#ff004f" class=""></path><path d="M351.836 38.257s4.735 101.571 0 159.86c-3.761 46.302-10.758 84.527 9.759 77.375s40.773-97.084 30.106-151.831S354.026 1.03 351.836 38.257z" fill="#47ff00" opacity="1" data-original="#ff004f" class=""></path></g></g></svg>