<svg xmlns="http://www.w3.org/2000/svg" version="1.1" xmlns:xlink="http://www.w3.org/1999/xlink" width="512" height="512" x="0" y="0" viewBox="0 0 512 512" style="enable-background:new 0 0 512 512" xml:space="preserve" class=""><g><path fill="#101010" d="M376.479 9.828H133.216a7.998 7.998 0 0 0-7.999 8.117l1.432 98.017c-2.809 5.306-10.695 21.025-18.739 44.549-9.029 26.405-19.953 68.092-20.725 116.742-1.026 64.636 11.909 135.002 19.637 177.044 3.3 17.953 5.907 32.133 5.907 37.453a8 8 0 0 0 7.971 8l89.552.323h.029a7.999 7.999 0 0 0 6.911-3.971c14.433-24.761 25.841-60.735 33.908-106.922a709.238 709.238 0 0 0 3.746-23.903c1.1 7.88 2.343 15.871 3.746 23.903 8.067 46.187 19.475 82.161 33.908 106.922a8.001 8.001 0 0 0 6.911 3.971h.029l89.552-.323a8 8 0 0 0 7.971-8c0-5.319 2.607-19.5 5.907-37.453 3.841-20.895 9.101-49.51 13.147-80.249 4.819-36.614 6.942-68.276 6.49-96.795-.772-48.65-11.697-90.337-20.725-116.742-8.044-23.524-15.93-39.243-18.739-44.549l1.429-97.811a8 8 0 0 0-7.993-8.323z" opacity="1" data-original="#484f69"></path><path fill="#545b70" d="M243.74 17.828h-23.593c-6.563 0-11.883 5.32-11.883 11.883v21.057a201.14 201.14 0 0 0 22.585 92.603l8.385 16.168c2.447 4.718 9.581 2.978 9.581-2.337V22.903a5.075 5.075 0 0 0-5.075-5.075zM165.168 23.012l1.813 1.937a107.082 107.082 0 0 1 28.845 69.887l.311 10.155c.135 4.417-5.358 6.548-8.237 3.196L156.69 71.85a45.775 45.775 0 0 1-10.905-33.461l.705-8.846c.747-9.366 12.259-13.391 18.678-6.531zM203.602 161.465l30.358 43.147a32.368 32.368 0 0 1 5.814 20.934l-7.644 107.016c-.117 1.635-2.409 1.9-2.895.334l-22.701-73.119-9.162-96.009c-.336-3.509 4.201-5.186 6.23-2.303z" opacity="1" data-original="#9fabce" class=""></path><path fill="#4c982f" d="M111.775 227.313c.834-2.989 5.265-2.218 5.023.876-2.311 29.489-4.512 87.4 9.01 126.719 7.297 21.218 12.299 33.466 15.689 40.51 4.088 8.495 5.629 17.985 4.493 27.345l-1.314 10.83c-.869 7.161-10.098 9.417-14.227 3.502-11.26-16.129-26.466-48.497-27.797-106.648-1.23-53.69 4.251-85.665 9.123-103.134zM207.5 295.538l3.863 11.82a248.256 248.256 0 0 1 11.019 102.143l-3.48 34.347c-1.755 17.322-19.11 28.556-35.632 23.064-12.723-4.229-20.465-17.099-18.239-30.321l1.203-7.145c2.231-13.25 7.491-25.866 15.71-36.494 8.879-11.482 20.06-37.631 21.247-96.779.05-2.484 3.537-2.996 4.309-.635z" opacity="1" data-original="#ff8564" class=""></path><path fill="#545b70" d="M265.95 17.828h23.593c6.563 0 11.883 5.32 11.883 11.883v21.057a201.14 201.14 0 0 1-22.585 92.603l-8.385 16.168c-2.447 4.718-9.581 2.978-9.581-2.337V22.903a5.074 5.074 0 0 1 5.075-5.075zM344.521 23.012l-1.813 1.937a107.082 107.082 0 0 0-28.845 69.887l-.311 10.155c-.135 4.417 5.358 6.548 8.237 3.196L353 71.85a45.775 45.775 0 0 0 10.905-33.461l-.705-8.846c-.747-9.366-12.259-13.391-18.679-6.531zM306.088 161.465l-30.358 43.147a32.368 32.368 0 0 0-5.814 20.934l7.644 107.016c.117 1.635 2.409 1.9 2.895.334l22.701-73.119 9.162-96.009c.335-3.509-4.202-5.186-6.23-2.303z" opacity="1" data-original="#9fabce" class=""></path><path fill="#4c982f" d="M403.623 228.957c-.709-3.021-5.169-2.434-5.055.667 1.089 29.559.893 87.512-14.244 126.238-8.168 20.898-13.673 32.929-17.352 39.826-4.436 8.319-6.368 17.737-5.62 27.135l.865 10.875c.572 7.191 9.7 9.827 14.07 4.088 11.917-15.65 28.449-47.361 32.185-105.407 3.449-53.592-.704-85.767-4.849-103.422zM302.19 295.538l-3.863 11.82a248.256 248.256 0 0 0-11.019 102.143l3.48 34.347c1.755 17.322 19.11 28.556 35.632 23.064 12.723-4.229 20.465-17.099 18.239-30.321l-1.203-7.145c-2.231-13.25-7.491-25.866-15.71-36.494-8.879-11.482-20.06-37.631-21.247-96.779-.05-2.484-3.538-2.996-4.309-.635z" opacity="1" data-original="#ff8564" class=""></path><path fill="#545b70" d="m149.251 70.803 12.907 18.804a13.757 13.757 0 0 1 1.178 13.501c-9.287 20.356-35.972 79.739-46.061 111.792-.825 2.62-4.671 2.217-4.906-.519-.718-8.367.187-22.196 7.811-42.231a63291.276 63291.276 0 0 1 22.992-60.328 37.52 37.52 0 0 0 2.467-13.389v-26.51c.001-1.944 2.511-2.723 3.612-1.12zM363.19 70.803l-12.907 18.804a13.757 13.757 0 0 0-1.178 13.501c9.287 20.356 35.972 79.739 46.061 111.792.825 2.62 4.671 2.217 4.906-.519.718-8.367-.187-22.196-7.811-42.231a63291.276 63291.276 0 0 0-22.992-60.328 37.52 37.52 0 0 1-2.467-13.389v-26.51c-.001-1.944-2.512-2.723-3.612-1.12z" opacity="1" data-original="#9fabce" class=""></path><g fill="#ff004f"><path d="m330.947 373.267-1.009-3.26c-16.772-54.182-18.937-112.302-6.246-167.733l14.175-61.915c1.83-7.992 12.162-8.829 15.107-1.227 11.6 29.942 29.948 81.806 31.735 114.469 4.075 74.495-8.975 76.749-18.464 118.181-4.382 19.129-29.51 20.183-35.298 1.485zM179.834 373.267l1.009-3.26c16.773-54.182 18.937-112.302 6.246-167.733l-14.175-61.915c-1.83-7.992-12.162-8.829-15.107-1.227-11.6 29.942-29.948 81.806-31.735 114.469-4.075 74.495 8.975 76.749 18.464 118.181 4.382 19.129 29.51 20.183 35.298 1.485z" fill="#47ff00" opacity="1" data-original="#ff004f" class=""></path></g></g></svg>