<svg xmlns="http://www.w3.org/2000/svg" version="1.1" xmlns:xlink="http://www.w3.org/1999/xlink" width="512" height="512" x="0" y="0" viewBox="0 0 512 512" style="enable-background:new 0 0 512 512" xml:space="preserve" class=""><g><path fill="#101010" d="M386.049 4.612c-.429 0-.858.034-1.284.104L308.167 17.17c-17.194 2.796-34.744 4.213-52.163 4.213s-34.97-1.418-52.163-4.213L127.242 4.715a7.989 7.989 0 0 0-3.682.264c-2.203.692-54.126 17.43-68.852 59.146-12.363 35.022-5.801 71.956-2.555 85.742-10.916 8.808-35.98 34.384-37.773 84.578a7.995 7.995 0 0 0 .975 4.122l52.646 96.326a8.002 8.002 0 0 0 7.02 4.164 8 8 0 0 0 6.91-3.969c19.521-33.465 19.788-63.519 19.211-73.545l15.19-19.627c2.29 3.812 5.327 8.26 9.282 13.009 8.243 9.897 11.749 23.036 9.62 36.046l-8.755 53.505a8.038 8.038 0 0 0-.104 1.436l1.463 80.921a7.997 7.997 0 0 0 1.279 4.196c.487.754 12.166 18.666 33.233 36.696 12.433 10.641 25.595 19.136 39.121 25.247 17.086 7.72 34.777 11.635 52.583 11.635 17.78 0 35.654-3.904 53.125-11.604 13.818-6.09 27.406-14.555 40.388-25.16 21.999-17.971 34.626-35.809 35.152-36.56a7.99 7.99 0 0 0 1.45-4.451l1.463-80.921a7.933 7.933 0 0 0-.104-1.436l-8.755-53.505c-2.129-13.011 1.377-26.149 9.62-36.046 3.955-4.75 6.993-9.198 9.282-13.009l15.19 19.627c-.577 10.026-.31 40.081 19.211 73.545a8 8 0 0 0 6.91 3.969l.112-.001a7.998 7.998 0 0 0 6.908-4.163l52.646-96.326a8.005 8.005 0 0 0 .975-4.122c-1.793-50.194-26.857-75.77-37.773-84.578 3.246-13.786 9.808-50.72-2.555-85.742C442.573 22.41 390.65 5.672 388.447 4.979a8.015 8.015 0 0 0-2.398-.367z" opacity="1" data-original="#484f69" class=""></path><path fill="#545b70" d="M170.261 32.674s-37.238-18.619-63.422-6.982-57.021 31.42-41.311 121.607c0 0 41.311-30.838 47.13-53.53s30.837-59.35 57.603-61.095z" opacity="1" data-original="#9fabce" class=""></path><path fill="#545b70" d="M242.454 54.825a15.301 15.301 0 0 1 7.52 13.185v46.72c0 8.704-6.048 15.996-14.171 17.901-4.694 1.101-9.383 2.22-13.953 3.754l-49.851 16.732c-9.613 0-18.681-4.489-24.464-12.168-6.153-8.172-16.775-17.887-33.478-20.387-3.507-.525-5.224-4.54-3.125-7.399 5.659-7.711 14.206-20.645 16.854-31.613 4.073-16.874 36.075-45.966 58.185-47.712 16.316-1.289 43.407 13.269 56.483 20.987zM110.018 141.749v28.823s-13.09 70.544-48.363 97.308c-5.13 3.892-12.553.702-13.298-5.694l-4.094-35.137a49.024 49.024 0 0 1 3.117-23.727l19.893-50.205s22.11-14.546 31.42-22.692c6.255 0 11.325 5.07 11.325 11.324z" opacity="1" data-original="#9fabce" class=""></path><path fill="#545b70" d="M48.428 175.413c1.622-1.285 3.836.622 2.83 2.43-4.655 8.367-11.702 22.889-12.824 35.847-1.105 12.77-.772 30.815-.404 41.857.078 2.346-3.072 3.176-4.159 1.095l-5.407-10.35a28.387 28.387 0 0 1-3.224-14.312c.565-13.726 4.161-41.496 23.188-56.567zM112.205 196.348v8.785c0 3.786-.666 7.54-1.997 11.084-2.851 7.595-8.865 20.797-18.739 29.621-1.047.936-2.627-.261-2.01-1.523 4.655-9.513 14.642-30.743 20.07-48.378.463-1.5 2.676-1.16 2.676.411z" opacity="1" data-original="#9fabce" class=""></path><g fill="#ff004f"><path d="M249.974 205.469v38.609a5.279 5.279 0 0 1-5.279 5.279h-34.61a9.542 9.542 0 0 1-8.262-4.767l-4.026-6.963a15.246 15.246 0 0 1 3.652-19.522c9.015-7.244 23.896-16.403 42.774-17.896 3.092-.245 5.751 2.158 5.751 5.26zM243.591 326.162h-24.602c-6.239 0-11.296-5.058-11.296-11.296v-44.872c0-6.239 5.058-11.296 11.296-11.296h24.602a6.383 6.383 0 0 1 6.383 6.383v54.697a6.384 6.384 0 0 1-6.383 6.384zM244.899 333.428h-23.593c-6.563 0-11.883 5.32-11.883 11.883v21.057a201.14 201.14 0 0 0 22.585 92.603l8.385 16.168c2.447 4.718 9.581 2.978 9.581-2.337V338.503a5.075 5.075 0 0 0-5.075-5.075z" fill="#47ff00" opacity="1" data-original="#ff004f" class=""></path></g><path fill="#4c982f" d="m157.565 228.805 15.916 18.076a41.707 41.707 0 0 1 10.405 27.563v22.063c0 1.734-2.036 2.668-3.35 1.536l-13.895-11.965a36.332 36.332 0 0 1-12.625-27.533v-28.4c0-1.869 2.314-2.743 3.549-1.34zM160.157 291.264l15.766 14.607a24.856 24.856 0 0 1 7.964 18.234v16.516c0 3.311-4.049 4.917-6.318 2.506l-16.227-17.241a26.949 26.949 0 0 1-7.325-18.47v-13.469c-.001-3.191 3.8-4.851 6.14-2.683zM155.526 332.07l12.614 13.48a107.082 107.082 0 0 1 28.845 69.887l.311 10.155c.135 4.417-5.358 6.548-8.237 3.196l-31.21-36.337a45.775 45.775 0 0 1-10.905-33.461l1.962-24.605c.264-3.32 4.344-4.747 6.62-2.315z" opacity="1" data-original="#ff8564" class=""></path><path fill="#545b70" d="M341.747 32.674s37.238-18.619 63.422-6.982 57.021 31.42 41.311 121.607c0 0-41.311-30.838-47.13-53.53-5.818-22.693-30.838-59.35-57.603-61.095z" opacity="1" data-original="#9fabce" class=""></path><path fill="#545b70" d="M269.553 54.825a15.301 15.301 0 0 0-7.52 13.185v46.72c0 8.704 6.048 15.996 14.171 17.901 4.693 1.101 9.383 2.22 13.953 3.754l49.851 16.732c9.613 0 18.681-4.489 24.464-12.168 6.153-8.172 16.775-17.887 33.478-20.387 3.507-.525 5.224-4.54 3.125-7.399-5.659-7.711-14.206-20.645-16.854-31.613-4.073-16.874-36.075-45.966-58.185-47.712-16.316-1.289-43.406 13.269-56.483 20.987zM401.99 141.749v28.823s13.091 70.544 48.363 97.308c5.13 3.892 12.553.702 13.298-5.694l4.094-35.137a49.024 49.024 0 0 0-3.117-23.727l-19.893-50.205s-22.11-14.546-31.42-22.692c-6.255 0-11.325 5.07-11.325 11.324z" opacity="1" data-original="#9fabce" class=""></path><path fill="#545b70" d="M463.58 175.413c-1.622-1.285-3.836.622-2.83 2.43 4.656 8.367 11.702 22.889 12.824 35.847 1.105 12.77.772 30.815.404 41.857-.078 2.346 3.073 3.176 4.159 1.095l5.407-10.35a28.387 28.387 0 0 0 3.224-14.312c-.566-13.726-4.161-41.496-23.188-56.567zM399.803 196.348v8.785c0 3.786.666 7.54 1.997 11.084 2.851 7.595 8.865 20.797 18.739 29.621 1.047.936 2.627-.261 2.01-1.523-4.655-9.513-14.642-30.743-20.07-48.378-.464-1.5-2.676-1.16-2.676.411z" opacity="1" data-original="#9fabce" class=""></path><path fill="#47ff00" d="M262.033 205.469v38.609a5.279 5.279 0 0 0 5.279 5.279h34.61a9.542 9.542 0 0 0 8.262-4.767l4.026-6.963a15.246 15.246 0 0 0-3.652-19.522c-9.015-7.244-23.896-16.403-42.774-17.896-3.091-.245-5.751 2.158-5.751 5.26zM268.417 326.162h24.602c6.239 0 11.296-5.058 11.296-11.296v-44.872c0-6.239-5.058-11.296-11.296-11.296h-24.602a6.384 6.384 0 0 0-6.384 6.383v54.697a6.384 6.384 0 0 0 6.384 6.384zM267.109 333.428h23.593c6.563 0 11.883 5.32 11.883 11.883v21.057A201.14 201.14 0 0 1 280 458.971l-8.385 16.168c-2.447 4.718-9.581 2.978-9.581-2.337V338.503a5.074 5.074 0 0 1 5.075-5.075z" opacity="1" data-original="#ff004f" class=""></path><path fill="#4c982f" d="m354.442 228.805-15.916 18.076a41.707 41.707 0 0 0-10.405 27.563v22.063c0 1.734 2.036 2.668 3.35 1.536l13.895-11.965a36.332 36.332 0 0 0 12.625-27.533v-28.4c0-1.869-2.314-2.743-3.549-1.34zM351.85 291.264l-15.766 14.607a24.856 24.856 0 0 0-7.964 18.234v16.516c0 3.311 4.049 4.917 6.318 2.506l16.227-17.241a26.949 26.949 0 0 0 7.325-18.47v-13.469c.001-3.191-3.799-4.851-6.14-2.683zM356.482 332.07l-12.614 13.48a107.082 107.082 0 0 0-28.845 69.887l-.311 10.155c-.135 4.417 5.358 6.548 8.237 3.196l31.21-36.337a45.775 45.775 0 0 0 10.905-33.461l-1.962-24.605c-.265-3.32-4.345-4.747-6.62-2.315z" opacity="1" data-original="#ff8564" class=""></path><path fill="#47ff00" d="M249.728 148.179v36.119c0 2.743-2.006 5.133-4.863 5.794l-20.888 4.832c-10.774 2.492-27.945 10.577-27.945 10.577-5.973 6.163-36.108-43.292-12.473-43.292l59.763-20c3.537 0 6.406 2.673 6.406 5.97zM261.787 148.179v36.119c0 2.743 2.006 5.133 4.863 5.794l20.888 4.832c10.774 2.492 27.945 10.577 27.945 10.577 5.973 6.163 37.243-43.292 12.473-43.292l-59.763-20c-3.537 0-6.406 2.673-6.406 5.97z" opacity="1" data-original="#ff004f" class=""></path></g></svg>